<svg width="333" height="335" viewBox="0 0 333 335" fill="none" xmlns="http://www.w3.org/2000/svg">
<path d="M305.281 167.075C305.281 243.922 243.291 306.219 166.823 306.219C90.3542 306.219 28.3642 243.922 28.3642 167.075C28.3642 90.228 90.3542 27.9312 166.823 27.9312C243.291 27.9312 305.281 90.228 305.281 167.075ZM76.8247 167.075C76.8247 217.026 117.118 257.519 166.823 257.519C216.527 257.519 256.821 217.026 256.821 167.075C256.821 117.124 216.527 76.6315 166.823 76.6315C117.118 76.6315 76.8247 117.124 76.8247 167.075Z" fill="url(#paint0_angular_1006_616)"/>
<path d="M166.823 27.9312C185.005 27.9312 203.01 31.5303 219.808 38.5229C236.607 45.5155 251.87 55.7648 264.728 68.6855C277.585 81.6062 287.783 96.9453 294.742 113.827C301.7 130.709 305.281 148.802 305.281 167.075L256.821 167.075C256.821 155.198 254.493 143.437 249.97 132.464C245.447 121.491 238.818 111.52 230.461 103.122C222.104 94.7234 212.182 88.0614 201.263 83.5162C190.344 78.971 178.641 76.6316 166.823 76.6316L166.823 27.9312Z" fill="url(#paint1_angular_1006_616)"/>
<defs>
<radialGradient id="paint0_angular_1006_616" cx="0" cy="0" r="1" gradientUnits="userSpaceOnUse" gradientTransform="translate(166.823 167.075) scale(138.458 139.144)">
<stop offset="0.9999" stop-color="#D3FF56"/>
<stop offset="1" stop-color="#00AFAA" stop-opacity="0.01"/>
</radialGradient>
<radialGradient id="paint1_angular_1006_616" cx="0" cy="0" r="1" gradientUnits="userSpaceOnUse" gradientTransform="translate(166.823 167.075) rotate(-90) scale(139.144 138.458)">
<stop offset="0.9999" stop-color="#D3FF56"/>
<stop offset="1" stop-color="#00AFAA" stop-opacity="0.01"/>
</radialGradient>
</defs>
</svg>
